<svg width="24" height="24" viewBox="0 0 24 24" fill="none" xmlns="http://www.w3.org/2000/svg">
<path d="M13.3721 2.99541C13.3793 2.93779 13.3865 2.88736 13.3865 2.82973C13.3865 2.05894 12.7598 1.43942 11.9962 1.43942C11.2254 1.43942 10.6059 2.06614 10.6059 2.82973C10.6059 2.88736 10.6131 2.94499 10.6203 2.99541C7.06173 3.83104 4.36035 7.85069 4.36035 12.6915C4.36035 18.1447 7.78209 22.5606 11.9962 22.5606C16.2176 22.5606 19.6321 18.1447 19.6321 12.6915C19.6393 7.85069 16.938 3.83104 13.3721 2.99541Z" fill="#1F1F1F" stroke="#1F1F1F" stroke-width="1.5" stroke-miterlimit="10" stroke-linecap="round" stroke-linejoin="round"/>
<path d="M11.9964 20.9037C15.4338 20.9037 18.2204 17.227 18.2204 12.6916C18.2204 8.15609 15.4338 4.47937 11.9964 4.47937C8.55903 4.47937 5.77246 8.15609 5.77246 12.6916C5.77246 17.227 8.55903 20.9037 11.9964 20.9037Z" fill="white"/>
<path d="M9.48218 11.8487L12.5005 8.83038" stroke="#1D1E1E" stroke-width="1.2" stroke-miterlimit="10" stroke-linecap="round" stroke-linejoin="round"/>
<path d="M12.7383 11.4309L13.9197 10.2495" stroke="#1D1E1E" stroke-width="1.2" stroke-miterlimit="10" stroke-linecap="round" stroke-linejoin="round"/>
<path d="M9.56152 14.6077L11.8091 12.3602" stroke="#1D1E1E" stroke-width="1.2" stroke-miterlimit="10" stroke-linecap="round" stroke-linejoin="round"/>
<path d="M11.8379 15.1624L14.5177 12.4826" stroke="#1D1E1E" stroke-width="1.2" stroke-miterlimit="10" stroke-linecap="round" stroke-linejoin="round"/>
</svg>
