<svg width="24" height="24" viewBox="0 0 24 24" fill="none" xmlns="http://www.w3.org/2000/svg">
<g clip-path="url(#clip0_539_2066)">
<path d="M12.5142 14.2203H9.0566V20.209C9.0566 20.6497 8.70632 21 8.26564 21H6.33344C5.89276 21 5.54248 20.6497 5.54248 20.209V3.79096C5.54248 3.35028 5.89276 3 6.33344 3H12.5142C16.2317 3 18.4577 5.55367 18.4577 8.61582C18.4577 11.678 16.2317 14.2203 12.5142 14.2203ZM12.3447 6.12994H9.0566V11.0565H12.3447C13.938 11.0565 14.9436 10.0734 14.9436 8.60452C14.9436 7.14689 13.938 6.12994 12.3447 6.12994Z" fill="#1F1F1F"/>
</g>
<defs>
<clipPath id="clip0_539_2066">
<rect width="12.9153" height="18" fill="white" transform="translate(5.54248 3)"/>
</clipPath>
</defs>
</svg>
