<svg width="24" height="24" viewBox="0 0 24 24" fill="none" xmlns="http://www.w3.org/2000/svg">
<path d="M18.4225 21.5H5.56791C3.87626 21.5 2.5 20.1231 2.5 18.4305V5.56945C2.5 3.87695 3.87626 2.5 5.56791 2.5H18.4321C20.1237 2.5 21.5 3.87695 21.5 5.56945V18.4401C21.4904 20.1326 20.1237 21.5 18.4225 21.5Z" stroke="#1F1F1F" stroke-width="1.5" stroke-miterlimit="10" stroke-linecap="round" stroke-linejoin="round"/>
<path d="M12.0001 9.07876C13.6726 9.07876 15.0585 7.84525 15.307 6.24837C15.3452 5.98063 15.154 5.73201 14.8864 5.73201H9.10423C8.85574 5.73201 8.64548 5.94238 8.68371 6.18143C8.90353 7.81656 10.2989 9.07876 12.0001 9.07876Z" stroke="#1F1F1F" stroke-width="1.5" stroke-miterlimit="10" stroke-linecap="round" stroke-linejoin="round"/>
<path d="M7.6896 15.5237C8.68194 15.5237 9.48638 14.158 9.48638 12.4733C9.48638 10.7887 8.68194 9.42301 7.6896 9.42301C6.69727 9.42301 5.89282 10.7887 5.89282 12.4733C5.89282 14.158 6.69727 15.5237 7.6896 15.5237Z" fill="#1F1F1F"/>
<path d="M7.68973 19.1573C8.41286 19.1573 8.99908 18.5708 8.99908 17.8473C8.99908 17.1238 8.41286 16.5372 7.68973 16.5372C6.96659 16.5372 6.38037 17.1238 6.38037 17.8473C6.38037 18.5708 6.96659 19.1573 7.68973 19.1573Z" fill="#1F1F1F"/>
<path d="M16.3007 15.5237C17.293 15.5237 18.0975 14.158 18.0975 12.4733C18.0975 10.7887 17.293 9.423 16.3007 9.423C15.3084 9.423 14.5039 10.7887 14.5039 12.4733C14.5039 14.158 15.3084 15.5237 16.3007 15.5237Z" fill="#1F1F1F"/>
<path d="M16.3008 19.1573C17.0239 19.1573 17.6102 18.5708 17.6102 17.8473C17.6102 17.1238 17.0239 16.5372 16.3008 16.5372C15.5777 16.5372 14.9915 17.1238 14.9915 17.8473C14.9915 18.5708 15.5777 19.1573 16.3008 19.1573Z" fill="#1F1F1F"/>
</svg>
