<svg width="24" height="24" viewBox="0 0 24 24" fill="none" xmlns="http://www.w3.org/2000/svg">
<path d="M22.5142 15.8097V14.0364C22.5142 13.502 22.2065 13.0243 21.7288 12.7976L12.4008 8.36032C12.0203 8.18219 11.583 8.16599 11.1862 8.31174L3.45345 11.3077C2.26317 11.7692 1.48584 12.9109 1.48584 14.1822C1.48584 15.3887 2.19029 16.4899 3.29151 16.9919L11.7854 20.8623C12.2632 21.081 12.8138 21.081 13.2996 20.8704L21.5911 17.2186C22.1498 16.9757 22.5142 16.417 22.5142 15.8097Z" fill="white" stroke="#1F1F1F" stroke-width="1.5" stroke-miterlimit="10" stroke-linecap="round" stroke-linejoin="round"/>
<path d="M22.5142 14.6275C22.5142 14.6275 22.2146 15.5344 20.8381 16.0769C19.7369 16.5142 15.2268 18.4899 13.4616 19.2672C13.1215 19.413 12.749 19.17 12.749 18.7976V18.336C12.749 18.1336 12.8705 17.9474 13.0567 17.8664L21.2915 14.1984" stroke="#1F1F1F" stroke-width="1.2" stroke-miterlimit="10" stroke-linecap="round" stroke-linejoin="round"/>
<path d="M10.0688 20.085V17.3077C10.0688 16.7085 10.417 16.166 10.9676 15.9231L19.9069 11.9231" stroke="#1F1F1F" stroke-width="1.2" stroke-miterlimit="10" stroke-linecap="round" stroke-linejoin="round"/>
<path d="M22.5142 10.5628V8.78947C22.5142 8.25506 22.2065 7.77733 21.7288 7.55061L12.4008 3.11336C12.0203 2.93522 11.583 2.91903 11.1862 3.06478L3.45345 6.06073C2.27126 6.53036 1.48584 7.67206 1.48584 8.94332C1.48584 10.1498 2.19029 11.251 3.29151 11.753L11.7854 15.6235C12.2632 15.8421 12.8138 15.8421 13.2996 15.6316L21.5911 11.9798C22.1498 11.7287 22.5142 11.17 22.5142 10.5628Z" fill="white" stroke="#1F1F1F" stroke-width="1.5" stroke-miterlimit="10" stroke-linecap="round" stroke-linejoin="round"/>
<path d="M22.5142 9.37247C22.5142 9.37247 22.2146 10.2794 20.8381 10.8219C19.7369 11.2591 15.2268 13.2348 13.4616 14.0121C13.1215 14.1579 12.749 13.915 12.749 13.5425V13.0891C12.749 12.8866 12.8705 12.7004 13.0567 12.6194L21.2915 8.95142" stroke="#1F1F1F" stroke-width="1.2" stroke-miterlimit="10" stroke-linecap="round" stroke-linejoin="round"/>
<path d="M10.0688 14.8381V12.0607C10.0688 11.4615 10.417 10.919 10.9676 10.6761L19.9069 6.67611" stroke="#1F1F1F" stroke-width="1.2" stroke-miterlimit="10" stroke-linecap="round" stroke-linejoin="round"/>
</svg>
