<svg width="24" height="24" viewBox="0 0 24 24" fill="none" xmlns="http://www.w3.org/2000/svg">
<path d="M22 5C22 3.89543 21.1046 3 20 3H4C2.89543 3 2 3.89543 2 5V16.8061C2 17.9107 2.89543 18.8061 4 18.8061H9.25765C9.43368 18.8061 9.59674 18.8987 9.68697 19.0498L11.2115 21.6035C11.5936 22.2435 12.5165 22.2556 12.9151 21.6257L14.5526 19.0387C14.6443 18.8939 14.8037 18.8061 14.9751 18.8061H20C21.1046 18.8061 22 17.9107 22 16.8061V5Z" fill="#08BD9D"/>
<circle cx="8" cy="10.8" r="0.5" stroke="white"/>
<circle cx="12" cy="10.8" r="0.5" stroke="white"/>
<circle cx="16" cy="10.8" r="0.5" stroke="white"/>
</svg>
