<svg width="16" height="16" viewBox="0 0 16 16" fill="none" xmlns="http://www.w3.org/2000/svg">
<path fill-rule="evenodd" clip-rule="evenodd" d="M3.21372 2C2.71502 2 2.23675 2.19867 1.88411 2.55231C1.53148 2.90595 1.33337 3.38559 1.33337 3.88571V12.1143C1.33337 12.6144 1.53148 13.094 1.88411 13.4477C2.23675 13.8013 2.71502 14 3.21372 14H8.00004C8.49874 14 8.97702 13.8013 9.32965 13.4477C9.68228 13.094 9.88039 12.6144 9.88039 12.1143V10.7429C9.88039 10.4588 9.65079 10.2286 9.36757 10.2286C9.08434 10.2286 8.85475 10.4588 8.85475 10.7429V12.1143C8.85475 12.3416 8.7647 12.5596 8.60441 12.7204C8.44412 12.8811 8.22673 12.9714 8.00004 12.9714H3.21372C2.98704 12.9714 2.76964 12.8811 2.60935 12.7204C2.44906 12.5596 2.35902 12.3416 2.35902 12.1143V3.88571C2.35902 3.65839 2.44906 3.44037 2.60935 3.27962C2.76964 3.11888 2.98704 3.02857 3.21372 3.02857H8.00004C8.22673 3.02857 8.44412 3.11888 8.60441 3.27962C8.7647 3.44037 8.85475 3.65839 8.85475 3.88571V5.25714C8.85475 5.54118 9.08434 5.77143 9.36757 5.77143C9.65079 5.77143 9.88039 5.54118 9.88039 5.25714V3.88571C9.88039 3.38559 9.68228 2.90595 9.32965 2.55231C8.97702 2.19867 8.49874 2 8.00004 2H3.21372ZM12.4652 5.57916C12.2649 5.37832 11.9402 5.37832 11.74 5.57916C11.5397 5.78 11.5397 6.10563 11.74 6.30647L12.9158 7.48567H4.58121C4.29799 7.48567 4.06839 7.71592 4.06839 7.99996C4.06839 8.28399 4.29799 8.51424 4.58121 8.51424H12.9158L11.74 9.69344C11.5397 9.89429 11.5397 10.2199 11.74 10.4208C11.9402 10.6216 12.2649 10.6216 12.4652 10.4208L14.5165 8.36361C14.7168 8.16277 14.7168 7.83714 14.5165 7.6363L12.4652 5.57916Z" fill="#A5A5A5"/>
</svg>
