<svg width="82" height="17" viewBox="0 0 82 17" fill="none" xmlns="http://www.w3.org/2000/svg">
<g clip-path="url(#clip0_70_443)">
<path d="M0 3.42627H2.51166C2.68291 3.32422 2.82562 3.193 2.92551 3.0472C3.03968 2.9014 3.08249 2.72645 3.08249 2.52233C3.08249 2.1141 2.85416 1.90998 2.41176 1.90998C2.28333 1.90998 2.15489 1.93914 2.04072 2.01204C1.92656 2.08494 1.79812 2.15784 1.68395 2.24531L1.39854 1.88082C1.59833 1.6767 1.84093 1.48717 2.09781 1.31221C2.35468 1.13725 2.62583 0.991455 2.92551 0.874817C3.21093 0.758179 3.51062 0.6707 3.8103 0.612381C4.10999 0.554062 4.40968 0.524902 4.70936 0.524902C5.36582 0.524902 5.83676 0.65612 6.15071 0.933136C6.46467 1.19557 6.62165 1.56007 6.62165 2.01204C6.62165 2.34737 6.53603 2.62439 6.37905 2.85766C6.2078 3.07636 5.97946 3.2659 5.67978 3.44085H8.70519V4.21358H7.17821C7.67769 4.57808 8.03446 5.04463 8.21998 5.61324H9.16185L9.24748 3.14926C9.26175 2.84308 9.21894 2.63897 9.10477 2.50775C9.00487 2.39111 8.81935 2.31821 8.57675 2.31821L8.60529 1.72044C9.14758 1.72044 9.76123 1.69128 10.432 1.61838C11.1027 1.54549 11.7306 1.47259 12.3442 1.38511L11.9732 9.60809H9.01915L9.11904 6.54634H8.39123V6.61924C8.39123 7.10037 8.29133 7.52319 8.07727 7.88768C7.86321 8.25218 7.57779 8.55835 7.20675 8.80621C6.83571 9.05406 6.40759 9.2436 5.90811 9.3894C5.40863 9.53519 4.88061 9.57893 4.29551 9.57893C3.05395 9.57893 2.08354 9.30192 1.37 8.76247C0.670727 8.22302 0.328228 7.47945 0.328228 6.54634C0.328228 6.05063 0.442395 5.61324 0.670727 5.20501C0.89906 4.79677 1.21302 4.46144 1.6126 4.199H0V3.42627ZM4.30978 8.82079C4.60947 8.82079 4.86634 8.66041 5.09467 8.32507C5.32301 7.98974 5.43717 7.42113 5.43717 6.61924C5.43717 5.75904 5.33728 5.14669 5.15176 4.78219C4.96624 4.4177 4.72363 4.22816 4.43822 4.199H4.39541C4.09572 4.199 3.83884 4.38854 3.61051 4.76761C3.38218 5.14669 3.26801 5.72988 3.26801 6.54634C3.26801 6.98374 3.29655 7.36281 3.33937 7.65441C3.38218 7.946 3.4678 8.1647 3.5677 8.33965C3.6676 8.51461 3.78176 8.63125 3.89593 8.70415C4.02436 8.77705 4.16707 8.82079 4.30978 8.82079ZM8.10581 13.5738L8.063 14.2882C8.03446 14.609 8.09154 14.8714 8.20571 15.0901C8.31987 15.3088 8.47685 15.4983 8.67665 15.6295C8.87644 15.7753 9.11904 15.8628 9.39019 15.9211C9.6756 15.9794 9.97529 16.0086 10.2892 16.0086C10.7174 16.0086 11.1883 15.9794 11.6878 15.9211C12.1873 15.8628 12.6725 15.7899 13.1577 15.6879C13.6429 15.6004 14.0995 15.4837 14.5419 15.3525C14.9843 15.2213 15.3554 15.0755 15.6836 14.9297L15.9405 15.7024C15.5837 15.8774 15.1556 16.0378 14.6276 16.1981C14.1138 16.3439 13.543 16.4897 12.9293 16.6064C12.3157 16.723 11.6735 16.8251 10.9885 16.898C10.3035 16.9709 9.63279 17 8.97633 17C7.33519 17 6.1079 16.7522 5.30874 16.271C4.50957 15.7753 4.12426 15.1192 4.16707 14.2882L4.22416 13.5738H3.45353V12.8011H11.4024L11.488 10.9786H3.53916V10.2204H15.3268L15.1699 13.5738H8.10581ZM15.8549 7.91684C15.7978 9.03948 15.3126 9.59351 14.3992 9.59351H12.6154L13.015 1.21015C13.4431 1.12267 13.8855 1.03519 14.3136 0.962295C14.7417 0.889396 15.1413 0.845657 15.5266 0.845657C15.755 0.845657 15.9262 0.874817 16.0404 0.933136C16.1545 0.991455 16.2116 1.10809 16.1974 1.26847L15.8549 7.91684Z" fill="#08BD9D"/>
<path d="M33.1225 14.4195H17.7243V13.4718H33.1225V14.4195ZM22.0769 2.97441C22.505 2.56618 23.0473 2.28916 23.6895 2.12878C24.3317 1.96841 25.0452 1.89551 25.8158 1.89551C26.087 1.92467 26.3439 1.98299 26.5722 2.08504C26.8005 2.1871 27.0003 2.30374 27.1716 2.44954C27.3428 2.59534 27.4713 2.75571 27.5712 2.94525C27.671 3.13479 27.7139 3.32432 27.7139 3.49928C27.7139 3.93667 27.6282 4.37407 27.457 4.81146C27.2857 5.24885 27.0431 5.65709 26.7149 6.06532C27.2001 6.13822 27.6996 6.2257 28.1991 6.34233C28.6985 6.45897 29.1838 6.57561 29.6404 6.72141C30.0971 6.86721 30.5395 7.013 30.9533 7.18796C31.3672 7.36292 31.724 7.55245 32.0379 7.77115C32.1521 8.26686 32.1664 8.68968 32.095 9.03959C32.0094 9.3895 31.8809 9.6811 31.6954 9.8998C31.5099 10.1185 31.2958 10.2789 31.039 10.3809C30.7964 10.483 30.568 10.5121 30.3682 10.4976C30.04 10.1331 29.7118 9.79774 29.3835 9.4624C29.0553 9.14165 28.7271 8.82089 28.3989 8.50014C28.0706 8.17938 27.7281 7.87321 27.3856 7.56704C27.0431 7.26086 26.6721 6.9401 26.2868 6.59019C25.8729 7.02758 25.402 7.43582 24.8454 7.82947C24.3031 8.22312 23.7038 8.57304 23.0473 8.90837C22.3909 9.22913 21.7059 9.52072 20.978 9.78316C20.2502 10.0456 19.5082 10.2497 18.7661 10.4101L18.6234 9.72484C19.2227 9.52072 19.8078 9.19997 20.4072 8.77716C21.0066 8.35434 21.5489 7.87321 22.0341 7.34834C22.5193 6.82347 22.9189 6.25486 23.2186 5.65709C23.5182 5.05932 23.6752 4.49071 23.6752 3.93667C23.6752 3.73256 23.6324 3.54302 23.5325 3.39722C23.4469 3.25143 23.3042 3.16395 23.1329 3.16395C23.0045 3.16395 22.8903 3.19311 22.7904 3.23685C22.6905 3.28059 22.5621 3.36806 22.4337 3.49928L22.0769 2.97441Z" fill="#08BD9D"/>
<path d="M34.0786 3.42634H36.5903C36.7616 3.32428 36.9043 3.19307 37.0042 3.04727C37.1183 2.90147 37.1611 2.72651 37.1611 2.5224C37.1611 2.11416 36.9328 1.91005 36.4904 1.91005C36.362 1.91005 36.2335 1.93921 36.1194 2.01211C36.0052 2.08501 35.8768 2.1579 35.7626 2.24538L35.4772 1.88089C35.677 1.67677 35.9196 1.48724 36.1765 1.31228C36.4333 1.13732 36.7045 1.0061 37.0042 0.889465C37.2896 0.772827 37.5893 0.685348 37.889 0.627029C38.1886 0.56871 38.4883 0.539551 38.788 0.539551C39.4445 0.539551 39.9154 0.670769 40.2294 0.947784C40.5433 1.21022 40.7003 1.57471 40.7003 2.02669C40.7003 2.36202 40.6147 2.63904 40.4577 2.87231C40.2864 3.09101 40.0581 3.28055 39.7584 3.4555H42.7696V4.22823H41.2426C41.7421 4.59272 42.0988 5.05928 42.2844 5.62789H43.2262L43.3119 3.16391C43.3261 2.85773 43.2833 2.65362 43.1691 2.5224C43.0693 2.40576 42.8837 2.33286 42.6411 2.33286L42.6697 1.73509C43.212 1.73509 43.8256 1.70593 44.4963 1.63303C45.1671 1.56013 45.795 1.48724 46.4086 1.39976L46.0376 9.62274H43.0978L43.1977 6.56099H42.4556V6.63389C42.4556 7.11502 42.3557 7.53784 42.1417 7.90233C41.9276 8.26682 41.6422 8.573 41.2711 8.83543C40.9001 9.08329 40.472 9.27283 39.9725 9.41862C39.473 9.56442 38.9307 9.62274 38.3599 9.62274C37.1183 9.62274 36.1479 9.34573 35.4344 8.80627C34.7351 8.26682 34.3783 7.52326 34.3783 6.57557C34.3783 6.07986 34.4925 5.64247 34.7208 5.23423C34.9492 4.826 35.2631 4.49067 35.6627 4.22823H34.0501V3.42634H34.0786ZM38.3884 8.82086C38.6881 8.82086 38.945 8.66048 39.1733 8.32514C39.4017 7.98981 39.5158 7.4212 39.5158 6.61931C39.5158 5.7591 39.4159 5.14675 39.2304 4.78226C39.0449 4.41777 38.8023 4.22823 38.5169 4.19907H38.4883C38.1886 4.19907 37.9318 4.38861 37.7034 4.76768C37.4751 5.14676 37.3609 5.74452 37.3609 6.54641C37.3609 6.9838 37.3895 7.36288 37.4323 7.65447C37.4751 7.94607 37.5607 8.17935 37.6606 8.3543C37.7605 8.52926 37.8747 8.6459 37.9889 8.7188C38.103 8.77711 38.2457 8.82086 38.3884 8.82086ZM42.1845 13.5739L42.1417 14.2883C42.1131 14.609 42.1702 14.8715 42.2844 15.0902C42.3985 15.3088 42.5555 15.4984 42.7553 15.6296C42.9551 15.7754 43.1977 15.8629 43.4688 15.9212C43.7543 15.9795 44.0539 16.0087 44.3679 16.0087C44.796 16.0087 45.267 15.9795 45.7664 15.9212C46.2659 15.8629 46.7511 15.79 47.2363 15.6879C47.7215 15.6004 48.1782 15.4838 48.6206 15.3526C49.063 15.2214 49.434 15.0756 49.7623 14.9298L50.0191 15.7025C49.6624 15.8775 49.2342 16.0378 48.7062 16.1982C48.1925 16.344 47.6216 16.4898 47.008 16.6064C46.3943 16.7231 45.7522 16.8251 45.0672 16.898C44.3822 16.9709 43.7114 17.0001 43.055 17.0001C41.4138 17.0001 40.1866 16.7522 39.3874 16.2711C38.5882 15.7754 38.2029 15.1193 38.2457 14.2883L38.3028 13.5739H37.5322V12.8011H45.481L45.5666 10.9787H37.6178V10.2205H49.4055L49.2485 13.5739H42.1845ZM49.9335 7.91691C49.8764 9.03955 49.3912 9.59358 48.4779 9.59358H46.694L47.0936 1.2248C47.5217 1.13732 47.9641 1.04984 48.3923 0.976944C48.8204 0.904045 49.22 0.860305 49.6053 0.860305C49.8336 0.860305 50.0049 0.889465 50.119 0.947784C50.2332 1.0061 50.2903 1.12274 50.276 1.28312L49.9335 7.91691Z" fill="#08BD9D"/>
<path d="M59.024 4.09706C59.0526 3.9221 59.024 3.79088 58.9669 3.7034C58.9099 3.61593 58.8242 3.57219 58.7243 3.57219C58.6387 3.55761 58.5674 3.57219 58.496 3.60135C58.4247 3.63051 58.3248 3.7034 58.2106 3.83462L57.8538 3.29517C58.0536 3.12021 58.2534 2.95984 58.4532 2.82862C58.653 2.68282 58.8528 2.56618 59.0811 2.47871C59.3094 2.39123 59.5663 2.31833 59.866 2.28917C60.1657 2.26001 60.5225 2.26001 60.922 2.30375C61.5071 2.36207 61.9353 2.58076 62.1921 2.94526C62.4633 3.32433 62.5775 3.74714 62.5204 4.22828C62.4348 5.01558 62.2492 5.78831 61.9924 6.5173C61.7355 7.24629 61.393 7.96069 60.9649 8.63136C62.1065 9.24371 62.9913 10.0602 63.6335 11.1099C63.5479 11.5619 63.4194 11.941 63.2339 12.218C63.0484 12.5096 62.8486 12.7137 62.6203 12.8449C62.3919 12.9761 62.1779 13.0345 61.9638 13.049C61.7497 13.049 61.5642 13.0053 61.4215 12.9032C61.3216 12.4513 61.236 12.0722 61.1789 11.7514C61.1218 11.4307 61.0505 11.1682 60.9934 10.9204C60.9363 10.6725 60.865 10.4393 60.7936 10.1914C60.708 9.95812 60.6224 9.66653 60.5082 9.33119C59.7804 10.3372 58.9241 11.2266 57.9252 11.9847C56.9405 12.7574 55.8702 13.3552 54.7285 13.8072L54.3717 13.3552C55.3992 12.495 56.2983 11.4307 57.0547 10.1477C56.7264 9.62279 56.3411 9.14165 55.9273 8.68968C55.3279 9.53531 54.6143 10.3372 53.7581 11.0662C52.9019 11.7952 51.9743 12.4075 50.9753 12.8887L50.6185 12.4658C51.7745 11.3286 52.6307 10.1039 53.1873 8.79174C53.7438 7.47956 54.0721 6.09449 54.1434 4.66567C54.1577 4.22828 54.0292 3.98042 53.7724 3.95126C53.6868 3.95126 53.6011 3.96584 53.5155 3.995C53.4299 4.02416 53.33 4.09706 53.2015 4.2137L52.8448 3.65967C53.0446 3.49929 53.2586 3.35349 53.4727 3.20769C53.6868 3.07648 53.9294 2.95984 54.1862 2.87236C54.4431 2.78488 54.7428 2.72656 55.0567 2.6974C55.3707 2.66824 55.7417 2.66824 56.1556 2.71198C56.441 2.74114 56.6693 2.79946 56.8549 2.9161C57.0404 3.03274 57.1688 3.16395 57.2687 3.33891C57.3686 3.51387 57.4257 3.7034 57.4542 3.9221C57.4828 4.1408 57.4971 4.35949 57.4828 4.59277C57.4542 5.19054 57.3401 5.77373 57.1403 6.3715C56.9405 6.95469 56.6551 7.55246 56.284 8.13565C56.4838 8.33977 56.6836 8.54388 56.8834 8.77716C57.0832 9.01044 57.2544 9.24371 57.4114 9.49157C57.8396 8.68968 58.1821 7.82948 58.4532 6.92553C58.7529 6.00701 58.9384 5.0739 59.024 4.09706ZM64.4184 8.00443H62.3777V7.07133H64.4612L64.6467 3.23685C64.6753 2.90152 64.6182 2.65366 64.504 2.49328C64.4184 2.33291 64.2186 2.26001 63.9475 2.26001L63.976 1.67682C64.3042 1.67682 64.661 1.63308 65.032 1.5456C65.4031 1.45812 65.7598 1.37064 66.1166 1.26858C66.4734 1.16653 66.8016 1.07905 67.1156 0.991569C67.4295 0.904091 67.6864 0.860352 67.9005 0.860352C68.0574 0.860352 68.1716 0.889511 68.2287 0.93325C68.2858 0.991569 68.3143 1.06447 68.3 1.16653L67.6436 14.8861C67.6293 15.1339 67.5437 15.3526 67.401 15.5713C67.244 15.7754 67.0585 15.965 66.8302 16.1254C66.6018 16.2857 66.3449 16.4024 66.0595 16.5044C65.7741 16.5919 65.4887 16.6502 65.2176 16.6502C64.4184 16.6502 64.0331 16.3295 64.0759 15.6734L64.4184 8.00443Z" fill="#08BD9D"/>
<path d="M81.9001 12.0138C81.5718 10.7454 81.2436 9.49151 80.8868 8.22307C80.6585 7.42119 80.316 6.66304 79.8736 5.96321C79.2029 4.89889 78.575 3.80541 77.9756 2.69735C77.6902 2.17247 77.2906 1.77882 76.7769 1.48723C75.992 1.04983 75.1928 0.627019 74.4222 0.160467C73.9655 -0.116548 73.6373 -0.0873888 73.3376 0.379164C73.0094 0.874875 72.6383 1.34143 72.3101 1.85172C71.9248 2.44949 71.9961 2.7994 72.5812 3.20764C73.1806 3.63045 73.8513 3.74709 74.5649 3.65961C75.1928 3.58671 75.8207 3.74709 76.3487 3.96578C76.8197 4.1699 77.0052 4.82599 77.1479 5.38002C77.4761 6.72136 77.3762 8.10644 77.4904 9.46235C77.5047 9.68105 77.4333 9.89975 77.2193 9.97265C76.9766 10.0601 76.7769 9.91433 76.6342 9.72479C75.8064 8.60215 74.6933 8.68963 73.5374 8.93748C73.1521 9.02496 72.8096 9.22908 72.5384 9.50609C72.0818 9.98723 71.6965 9.84143 71.354 9.40403C70.9686 8.90832 70.4977 8.54383 69.984 8.23765L69.6557 15.163C69.6557 15.2359 69.6272 15.3234 69.6129 15.3963C70.355 14.9589 71.1114 15.3088 71.9676 15.7462C73.3661 16.4752 74.9074 16.3003 76.3915 15.9358C78.104 15.513 79.7309 14.886 81.2151 13.8946C81.9572 13.3697 82.1284 12.8886 81.9001 12.0138Z" fill="#08BD9D"/>
</g>
<defs>
<clipPath id="clip0_70_443">
<rect width="82" height="17" fill="white"/>
</clipPath>
</defs>
</svg>
