<svg width="24" height="24" viewBox="0 0 24 24" fill="none" xmlns="http://www.w3.org/2000/svg">
<circle cx="12" cy="12" r="9.6" fill="#08BD9D"/>
<path fill-rule="evenodd" clip-rule="evenodd" d="M8.64004 8.63994C9.03769 8.63994 9.36004 8.96229 9.36004 9.35994V10.0319C9.36004 10.4296 9.03769 10.7519 8.64004 10.7519C8.2424 10.7519 7.92004 10.4296 7.92004 10.0319V9.35994C7.92004 8.96229 8.2424 8.63994 8.64004 8.63994Z" fill="white"/>
<path fill-rule="evenodd" clip-rule="evenodd" d="M15.36 8.63994C15.7577 8.63994 16.08 8.96229 16.08 9.35994V10.0319C16.08 10.4296 15.7577 10.7519 15.36 10.7519C14.9624 10.7519 14.64 10.4296 14.64 10.0319V9.35994C14.64 8.96229 14.9624 8.63994 15.36 8.63994Z" fill="white"/>
<path fill-rule="evenodd" clip-rule="evenodd" d="M12 9.59999C12.3977 9.59999 12.72 9.92235 12.72 10.32V12.24C12.72 12.6376 12.3977 12.96 12 12.96C11.6024 12.96 11.28 12.6376 11.28 12.24V10.32C11.28 9.92235 11.6024 9.59999 12 9.59999Z" fill="white"/>
<path fill-rule="evenodd" clip-rule="evenodd" d="M9.86748 14.6092C9.58737 14.3308 9.13464 14.33 8.85346 14.6083C8.57088 14.8881 8.56858 15.344 8.84835 15.6265L9.36001 15.12C8.84835 15.6265 8.84857 15.6268 8.8488 15.627L8.84927 15.6275L8.85029 15.6285L8.8526 15.6308L8.85833 15.6365L8.87422 15.6518C8.88676 15.6638 8.90324 15.6792 8.9236 15.6974C8.96429 15.7339 9.02067 15.7821 9.09237 15.8379C9.23551 15.9495 9.44138 16.0929 9.70689 16.2349C10.2389 16.5194 11.0148 16.8 12 16.8C12.9852 16.8 13.7611 16.5194 14.2931 16.2349C14.5587 16.0929 14.7645 15.9495 14.9077 15.8379C14.9794 15.7821 15.0357 15.7339 15.0764 15.6974C15.0968 15.6792 15.1133 15.6638 15.1258 15.6518L15.1417 15.6365L15.1474 15.6308L15.1497 15.6285L15.1508 15.6275L15.1512 15.627C15.1515 15.6268 15.1517 15.6265 14.64 15.12L15.1517 15.6265C15.4314 15.344 15.4292 14.8881 15.1466 14.6083C14.8654 14.33 14.4127 14.3308 14.1326 14.6092C14.1326 14.6092 14.1326 14.6092 14.1326 14.6092C14.1324 14.6094 14.1322 14.6095 14.132 14.6097C14.1298 14.6118 14.1243 14.6171 14.1153 14.6251C14.0974 14.6411 14.0664 14.6679 14.0226 14.7021C13.9347 14.7705 13.7974 14.8671 13.6141 14.9651C13.2485 15.1606 12.7044 15.36 12 15.36C11.2956 15.36 10.7515 15.1606 10.3859 14.9651C10.2027 14.8671 10.0653 14.7705 9.97746 14.7021C9.93366 14.6679 9.90259 14.6411 9.88471 14.6251C9.87578 14.6171 9.87018 14.6118 9.86798 14.6097M9.86749 14.6092C9.86748 14.6092 9.86748 14.6092 9.86748 14.6092L9.86749 14.6092Z" fill="white"/>
<path d="M6 2.39999C7.42222 4.51985 12.2933 8.37798 20.4 6.85169" stroke="white" stroke-width="1.2" stroke-linecap="round" stroke-linejoin="round"/>
</svg>
