<svg width="24" height="24" viewBox="0 0 24 24" fill="none" xmlns="http://www.w3.org/2000/svg">
<circle cx="12" cy="12" r="9" stroke="#1F1F1F" stroke-width="1.2"/>
<path fill-rule="evenodd" clip-rule="evenodd" d="M8.64 8.63992C9.03764 8.63992 9.36 8.96228 9.36 9.35992V10.0319C9.36 10.4296 9.03764 10.7519 8.64 10.7519C8.24235 10.7519 7.92 10.4296 7.92 10.0319V9.35992C7.92 8.96228 8.24235 8.63992 8.64 8.63992Z" fill="#1F1F1F"/>
<path fill-rule="evenodd" clip-rule="evenodd" d="M15.36 8.63992C15.7577 8.63992 16.08 8.96228 16.08 9.35992V10.0319C16.08 10.4296 15.7577 10.7519 15.36 10.7519C14.9624 10.7519 14.64 10.4296 14.64 10.0319V9.35992C14.64 8.96228 14.9624 8.63992 15.36 8.63992Z" fill="#1F1F1F"/>
<path fill-rule="evenodd" clip-rule="evenodd" d="M12 9.60001C12.3977 9.60001 12.72 9.92236 12.72 10.32V12.24C12.72 12.6377 12.3977 12.96 12 12.96C11.6024 12.96 11.28 12.6377 11.28 12.24V10.32C11.28 9.92236 11.6024 9.60001 12 9.60001Z" fill="#1F1F1F"/>
<path fill-rule="evenodd" clip-rule="evenodd" d="M9.86749 14.6092C9.58739 14.3308 9.13465 14.33 8.85348 14.6083C8.57089 14.8881 8.5686 15.344 8.84836 15.6265L9.36003 15.12C8.84836 15.6265 8.84858 15.6268 8.84881 15.627L8.84929 15.6275L8.8503 15.6285L8.85262 15.6308L8.85835 15.6365L8.87423 15.6518C8.88678 15.6638 8.90325 15.6792 8.92361 15.6974C8.9643 15.7339 9.02068 15.7821 9.09238 15.8379C9.23553 15.9495 9.44139 16.0929 9.7069 16.2349C10.2389 16.5194 11.0148 16.8 12 16.8C12.9852 16.8 13.7612 16.5194 14.2932 16.2349C14.5587 16.0929 14.7645 15.9495 14.9077 15.8379C14.9794 15.7821 15.0358 15.7339 15.0764 15.6974C15.0968 15.6792 15.1133 15.6638 15.1258 15.6518L15.1417 15.6365L15.1474 15.6308L15.1498 15.6285L15.1508 15.6275L15.1512 15.627C15.1515 15.6268 15.1517 15.6265 14.64 15.12L15.1517 15.6265C15.4315 15.344 15.4292 14.8881 15.1466 14.6083C14.8654 14.33 14.4127 14.3308 14.1326 14.6092C14.1326 14.6092 14.1326 14.6092 14.1326 14.6092C14.1324 14.6094 14.1323 14.6095 14.1321 14.6097C14.1299 14.6118 14.1243 14.6171 14.1153 14.6251C14.0975 14.6411 14.0664 14.6679 14.0226 14.7021C13.9347 14.7705 13.7974 14.8671 13.6141 14.9651C13.2485 15.1606 12.7044 15.36 12 15.36C11.2957 15.36 10.7516 15.1606 10.386 14.9651C10.2027 14.8671 10.0653 14.7705 9.97748 14.7021C9.93368 14.6679 9.90261 14.6411 9.88472 14.6251C9.87579 14.6171 9.8702 14.6118 9.868 14.6097M9.8675 14.6092C9.8675 14.6092 9.8675 14.6092 9.86749 14.6092L9.8675 14.6092Z" fill="#1F1F1F"/>
<path d="M6 2.39999C7.42222 4.51985 12.2933 8.37798 20.4 6.85169" stroke="#1F1F1F" stroke-width="1.2" stroke-linecap="round" stroke-linejoin="round"/>
</svg>
